<?xml version="1.0" standalone="no"?><!DOCTYPE svg PUBLIC "-//W3C//DTD SVG 1.1//EN" "http://www.w3.org/Graphics/SVG/1.1/DTD/svg11.dtd"><svg t="1610602922771" class="icon" viewBox="0 0 1024 1024" version="1.1" xmlns="http://www.w3.org/2000/svg" p-id="10281" xmlns:xlink="http://www.w3.org/1999/xlink" width="200" height="200"><defs><style type="text/css"></style></defs><path d="M512 512m-512 0a512 512 0 1 0 1024 0 512 512 0 1 0-1024 0Z" fill="#FB901D" opacity=".147" p-id="10282"></path><path d="M606.72 284.3648a51.2 51.2 0 0 1 7.68 26.9312v402.7904a51.2 51.2 0 0 1-78.336 43.4176L307.2 614.4H256a51.2 51.2 0 0 1-51.2-51.2V460.8a51.2 51.2 0 0 1 51.2-51.2h51.2l229.0688-141.824a51.2 51.2 0 0 1 70.4512 16.5888z m117.1456 305.7664l4.3008 1.6896 102.4 50.8416a25.6 25.6 0 0 1-18.432 47.5648l-4.3008-1.6896-102.4-50.8928a25.6 25.6 0 0 1 18.432-47.5136zM819.2 486.4a25.6 25.6 0 0 1 4.608 50.7904L819.2 537.6h-102.4a25.6 25.6 0 0 1-4.608-50.7904L716.8 486.4h102.4z m22.8864-139.4688a25.6 25.6 0 0 1-7.5264 31.9488l-3.8912 2.4064-102.4 51.2A25.6 25.6 0 0 1 701.44 389.12l3.8912-2.4064 102.4-51.2a25.6 25.6 0 0 1 34.3552 11.4176z" fill="#FB901D" p-id="10283"></path></svg>