<?xml version="1.0" standalone="no"?><!DOCTYPE svg PUBLIC "-//W3C//DTD SVG 1.1//EN" "http://www.w3.org/Graphics/SVG/1.1/DTD/svg11.dtd"><svg t="1587968012374" class="icon" viewBox="0 0 1024 1024" version="1.1" xmlns="http://www.w3.org/2000/svg" p-id="6498" xmlns:xlink="http://www.w3.org/1999/xlink" width="200" height="200"><defs><style type="text/css"></style></defs><path d="M512 512m-512 0a512 512 0 1 0 1024 0 512 512 0 1 0-1024 0Z" fill="#FE3957" opacity=".147" p-id="6499"></path><path d="M367.2064 294.7584l144.7424 144.7424 144.896-144.7424a51.2 51.2 0 0 1 72.3968 72.448l-144.8448 144.7424 144.8448 144.896a51.2 51.2 0 0 1-72.448 72.3968L512 584.3968l-144.7424 144.8448a51.2 51.2 0 1 1-72.448-72.448L439.5008 512 294.7584 367.2064a51.2 51.2 0 0 1 72.448-72.448z" fill="#FE3957" p-id="6500"></path></svg>